<?xml version="1.0" encoding="UTF-8"?>
<svg width="225px" height="102px" viewBox="0 0 225 102" version="1.1" xmlns="http://www.w3.org/2000/svg" xmlns:xlink="http://www.w3.org/1999/xlink">
    <!-- Generator: Sketch 50.2 (55047) - http://www.bohemiancoding.com/sketch -->
    <title>Group 2</title>
    <desc>Created with Sketch.</desc>
    <defs></defs>
    <g id="Page-1" stroke="none" stroke-width="1" fill="none" fill-rule="evenodd">
        <g id="Sidebar-Copy-2" transform="translate(-120.000000, -52.000000)" fill="#000000">
            <g id="Group-2" transform="translate(118.000000, 50.000000)">
                <text id="DRAFT-MX-Copy" font-family="HelveticaNeueLTStd-HvEx, Helvetica Neue LT Std" font-size="34" font-style="expanded" font-weight="600">
                    <tspan x="0.127" y="104">DRAFT MX</tspan>
                </text>
                <g id="Group-Copy" transform="translate(89.000000, 0.000000)" fill-rule="nonzero">
                    <path d="M26.5238095,2.35714286 C13.3763269,2.16141004 2.55924492,12.6603507 2.36252605,25.8078186 C2.16580717,38.9552866 12.6639365,49.7731559 25.8113897,49.9708609 C38.9588428,50.1685658 49.7774995,39.6712478 49.9761905,26.5238095 C50.0716243,20.2089241 47.6542032,14.1148417 43.2558769,9.58255627 C38.8575506,5.05027081 32.8387163,2.45115587 26.5238095,2.35714286 Z M33.6666667,44.452381 L26.1666667,40.452381 L18.3571429,44.3333333 C13.4970829,42.2180426 9.68291973,38.2495986 7.76190476,33.3095238 L11.8809524,25.7380952 L8.0952381,18.1428571 C10.2112933,13.413921 14.0897352,9.69779282 18.9047619,7.78571429 L26.5714286,11.8809524 L34.1904762,8.19047619 C38.8521515,10.2707313 42.5350214,14.0644283 44.4761905,18.7857143 L40.452381,26.1666667 L44.2380952,33.9285714 C42.2131624,38.6890332 38.4123919,42.4727216 33.6428571,44.4761905 L33.6666667,44.452381 Z" id="Shape"></path>
                    <polygon id="Shape" points="21.5714286 17.9285714 16.7380952 26.0238095 21.3333333 34.2857143 30.7857143 34.4285714 35.6190476 26.3095238 31.0238095 18.0714286"></polygon>
                </g>
            </g>
        </g>
    </g>
</svg>